<?xml version="1.0" encoding="utf-8"?>
<!-- Generator: Adobe Illustrator 20.1.0, SVG Export Plug-In . SVG Version: 6.00 Build 0)  -->
<svg version="1.1" id="Layer_1" xmlns="http://www.w3.org/2000/svg" xmlns:xlink="http://www.w3.org/1999/xlink" x="0px" y="0px"
	 viewBox="0 0 166.1 144.5" style="enable-background:new 0 0 166.1 144.5;" xml:space="preserve">
<style type="text/css">
	.st0{fill:#306AFC;}
</style>
<g>
	<g>
		<path class="st0" d="M37.1,98.1c-0.7-0.6-1.2-1.4-1.6-2.3c-0.4-0.9-0.6-2-0.6-3.1l0,0c0-0.3,0.1-0.6,0.2-0.8
			c0.1-0.3,0.3-0.5,0.5-0.7c0.2-0.2,0.4-0.3,0.6-0.4l2.9-1c0,0,0,0,0.1,0c0,0,0.1,0,0.1,0l0.1,0c0.2,0,0.4,0.1,0.6,0.3
			c0.2,0.2,0.2,0.4,0.2,0.7l0,0.5c0,0.5,0.1,0.9,0.3,1.2c0.2,0.4,0.4,0.6,0.7,0.8c0.3,0.2,0.6,0.3,1,0.3c0.3,0,0.6-0.1,0.9-0.2
			l0.1,0c0.1,0,0.2-0.1,0.2-0.1c0.1,0,0.1-0.1,0.1-0.1l0,0c0.5-0.2,0.9-0.5,1.3-0.9c0.4-0.4,0.7-0.9,0.9-1.4
			c0.2-0.5,0.3-1.1,0.3-1.6l0.1-2.3c0-0.8-0.2-1.4-0.5-1.8c-0.3-0.4-0.7-0.7-1.3-0.8c-0.7-0.2-1.7-0.1-3,0.3l-0.8,0.2
			c-1.6,0.4-2.8,0.3-3.6-0.3c-0.8-0.6-1.4-1.4-1.6-2.5c-0.3-1.1-0.4-2.3-0.4-3.7l0-1.6l0-0.6c0-1,0.1-1.9,0.4-2.9
			c0.3-1,0.8-1.9,1.4-2.7c0.6-0.9,1.4-1.7,2.3-2.4c0.9-0.7,1.9-1.2,2.9-1.5l1.3-0.4c1-0.3,1.9-0.4,2.7-0.3c0.9,0.1,1.6,0.4,2.3,1
			c0.7,0.5,1.2,1.2,1.5,2.1c0.4,0.9,0.5,1.9,0.5,3l0,0c0,0.3-0.1,0.5-0.2,0.7c-0.1,0.2-0.2,0.5-0.4,0.6c-0.2,0.2-0.4,0.3-0.6,0.4
			l-2.8,1c-0.3,0.1-0.6,0-0.8-0.1c-0.2-0.2-0.3-0.4-0.3-0.8l0-0.3c0-0.4-0.1-0.8-0.3-1.1c-0.2-0.3-0.4-0.6-0.7-0.8
			c-0.3-0.2-0.6-0.3-1-0.3c-0.2,0-0.5,0-0.8,0.1l-0.3,0.1c0,0-0.1,0.1-0.2,0.1c-0.5,0.2-0.9,0.5-1.3,0.9c-0.4,0.4-0.7,0.8-0.9,1.3
			s-0.3,1-0.3,1.5l0,2.6c0.1,0.6,0.2,1,0.5,1.2c0.3,0.2,0.7,0.3,1.3,0.3c0.6,0,1.3-0.2,2.3-0.5c1.7-0.4,3-0.5,4.1-0.2
			c1.1,0.3,1.8,1.1,2.4,2.2c0.5,1.1,0.8,2.6,0.8,4.5c0,0.8,0,1.6-0.1,2.3c-0.1,0.8-0.2,1.6-0.4,2.4c-0.2,0.9-0.6,1.7-1,2.6
			c-0.7,1.4-1.6,2.6-2.7,3.6c-1.1,1-2.2,1.7-3.4,2.1l-1.3,0.4c-1,0.3-1.9,0.4-2.8,0.3C38.7,99,37.9,98.7,37.1,98.1z"/>
		<path class="st0" d="M53.4,93.8c0-0.1,0-0.2,0-0.2l5.3-31.2c0.1-0.4,0.2-0.7,0.5-1c0.3-0.3,0.6-0.5,0.9-0.7l5.1-1.7
			c0.4-0.1,0.7-0.1,1,0c0.3,0.1,0.5,0.3,0.5,0.7l5.4,27.6c0,0,0,0.1,0,0.2c0,0.3-0.1,0.5-0.3,0.8c-0.2,0.2-0.4,0.4-0.7,0.5l-3.5,1.2
			c-0.6,0.2-1,0-1.1-0.6l-1.2-7L60.2,84L59,91.8c-0.1,0.4-0.2,0.7-0.3,0.9c-0.2,0.2-0.4,0.4-0.7,0.5l-3.5,1.2
			c-0.3,0.1-0.6,0.1-0.8,0S53.4,94,53.4,93.8z M64.7,77.2l-1.8-10.8c0-0.1,0-0.1-0.1-0.1c0,0-0.1,0-0.1,0c-0.1,0-0.1,0.1-0.1,0.1
			c0,0-0.1,0.1-0.1,0.2l-1.7,12L64.7,77.2z"/>
		<path class="st0" d="M75.9,85.9l-0.1-29.4c0-0.3,0.1-0.7,0.3-1c0.2-0.3,0.5-0.5,0.8-0.6l3-1c0.2-0.1,0.3-0.1,0.5,0
			c0.2,0.1,0.3,0.2,0.4,0.3c0.1,0.2,0.1,0.3,0.1,0.6L81,84.2c0,0.2,0,0.4-0.1,0.7c-0.1,0.2-0.2,0.4-0.4,0.6
			c-0.2,0.2-0.3,0.3-0.5,0.3l-3,1c-0.3,0.1-0.6,0.1-0.8-0.1C76,86.5,75.9,86.3,75.9,85.9z"/>
		<path class="st0" d="M86.2,82.3l-0.1-29c0-0.3,0.1-0.5,0.2-0.8c0.1-0.3,0.3-0.5,0.5-0.7c0.2-0.2,0.4-0.3,0.6-0.4l8.2-2.8
			c0.9-0.3,1.8-0.4,2.6-0.4c0.8,0.1,1.6,0.3,2.3,0.7c0.7,0.4,1.2,0.9,1.7,1.6c0.7,1.1,1,2.4,1,3.9l0.1,14.5c0,1-0.1,2.1-0.4,3.1
			c-0.3,1.1-0.7,2.1-1.2,3.1c-0.5,1-1.2,1.9-1.9,2.7c-1.1,1.2-2.4,2-3.7,2.5l-4.6,1.5c0,0,0,0-0.1,0.1c0,0-0.1,0-0.1,0l-3.8,1.3
			c-0.2,0.1-0.4,0.1-0.6,0c-0.2-0.1-0.3-0.2-0.4-0.4C86.3,82.8,86.2,82.6,86.2,82.3z M94.6,75.4c0.6-0.2,1.2-0.6,1.7-1.1
			c0.5-0.5,0.9-1.1,1.3-1.8c0.3-0.7,0.5-1.4,0.5-2l0-13.8c0-0.6-0.1-1.1-0.4-1.6c-0.3-0.4-0.7-0.7-1.1-0.9c-0.5-0.2-1-0.1-1.5,0.1
			l-3.4,1.2c-0.2,0.1-0.3,0.2-0.4,0.3c-0.1,0.2-0.2,0.3-0.2,0.5l0.1,20.1c0,0.1,0,0.2,0.1,0.2c0.1,0,0.1,0,0.2,0L94.6,75.4z"/>
	</g>
	<g>
		<path class="st0" d="M65.8,51.1l-0.1-23.4c0-0.2,0-0.3,0.1-0.5c0.1-0.2,0.2-0.3,0.3-0.5c0.1-0.1,0.3-0.2,0.4-0.3l2.4-0.8
			c0.2-0.1,0.5-0.1,0.6,0.1c0.2,0.1,0.3,0.3,0.3,0.6l0,8.9l6.1-2.1l0-8.9c0-0.2,0-0.3,0.1-0.5c0.1-0.2,0.2-0.3,0.3-0.5
			c0.1-0.1,0.3-0.2,0.4-0.3l2.3-0.8c0.2-0.1,0.3-0.1,0.4,0c0.1,0,0.3,0.1,0.3,0.2c0.1,0.1,0.1,0.3,0.1,0.4l0.1,23.4
			c0,0.2,0,0.4-0.1,0.5c-0.1,0.2-0.2,0.3-0.3,0.5c-0.1,0.1-0.3,0.2-0.5,0.3L77,48.3c-0.2,0.1-0.3,0.1-0.5,0c-0.1,0-0.3-0.1-0.3-0.2
			c-0.1-0.1-0.1-0.3-0.1-0.5l0-10.1l-6.1,2.1l0,10c0,0.2,0,0.4-0.1,0.5c-0.1,0.2-0.2,0.3-0.3,0.5C69.3,50.9,69.2,51,69,51l-2.4,0.8
			c-0.1,0-0.3,0-0.4,0c-0.1,0-0.2-0.1-0.3-0.3C65.8,51.5,65.8,51.3,65.8,51.1z"/>
		<path class="st0" d="M83.6,45l-0.1-23.4c0-0.3,0.1-0.5,0.2-0.8c0.2-0.2,0.4-0.4,0.6-0.5l9.6-3.2c0.2-0.1,0.5-0.1,0.6,0.1
			c0.2,0.1,0.3,0.3,0.3,0.6l0,2.5c0,0.2,0,0.4-0.1,0.5c-0.1,0.2-0.2,0.3-0.3,0.5c-0.1,0.1-0.3,0.2-0.4,0.3l-6.6,2.2l0,5.5l5-1.7
			c0.2-0.1,0.4-0.1,0.6,0.1c0.2,0.1,0.2,0.3,0.2,0.6l0,2.5c0,0.3-0.1,0.5-0.2,0.7c-0.1,0.2-0.3,0.4-0.6,0.4l-5,1.7l0,6.6l6.6-2.2
			c0.2-0.1,0.5-0.1,0.6,0.1c0.2,0.1,0.3,0.3,0.3,0.6l0,2.5c0,0.2,0,0.4-0.1,0.5c-0.1,0.2-0.2,0.3-0.3,0.5c-0.1,0.1-0.3,0.2-0.4,0.3
			l-9.6,3.2c-0.3,0.1-0.5,0.1-0.6-0.1C83.7,45.5,83.6,45.3,83.6,45z"/>
	</g>
	<g>
		<path class="st0" d="M83.3,109.2l31.9-10.8c0.1,0,0.2,0,0.3,0c0.1,0.1,0.1,0.2,0.1,0.3l0,1.4c0,0.1,0,0.2-0.1,0.2
			c0,0.1-0.1,0.2-0.2,0.2c-0.1,0.1-0.1,0.1-0.2,0.1l-31.9,10.8c-0.1,0-0.2,0-0.2,0c-0.1,0-0.1-0.1-0.2-0.1c0-0.1-0.1-0.1-0.1-0.2
			l0-1.4c0-0.1,0-0.3,0.1-0.4C83.1,109.3,83.2,109.3,83.3,109.2z"/>
	</g>
	<g>
		<path class="st0" d="M45.8,128.3l-3.9-22.2c0,0,0-0.1,0-0.1c0-0.2,0.1-0.4,0.2-0.6c0.1-0.2,0.3-0.3,0.5-0.4l2.3-0.8
			c0.2-0.1,0.5-0.1,0.6,0.1c0.2,0.1,0.3,0.3,0.4,0.5l2.2,13.8c0,0.1,0,0.1,0.1,0.1c0,0,0.1,0,0.1,0c0,0,0.1,0,0.1-0.1
			c0,0,0-0.1,0.1-0.1l1.7-15c0-0.2,0.1-0.4,0.2-0.6c0.1-0.2,0.2-0.3,0.4-0.5c0.1-0.1,0.3-0.2,0.4-0.3l2.6-0.9c0.1,0,0.3-0.1,0.4,0
			c0.1,0,0.3,0.1,0.4,0.2c0.1,0.1,0.2,0.2,0.2,0.4l2.2,14c0,0.1,0.1,0.1,0.1,0.1c0,0,0.1,0,0.1-0.1c0,0,0-0.1,0.1-0.1l1.7-15.3
			c0-0.3,0.2-0.6,0.4-0.8c0.2-0.3,0.4-0.4,0.6-0.5l2.3-0.8c0.1,0,0.3,0,0.4,0c0.1,0,0.2,0.1,0.3,0.2c0.1,0.1,0.1,0.2,0.1,0.3
			l-3.3,24.5c0,0.4-0.2,0.7-0.4,1c-0.2,0.3-0.4,0.5-0.7,0.6l-3.2,1.1c-0.2,0.1-0.5,0.1-0.6-0.1c-0.2-0.1-0.3-0.3-0.4-0.5l-1.9-11
			l-1.6,11.9c-0.1,0.4-0.2,0.7-0.4,1c-0.2,0.3-0.4,0.5-0.7,0.6l-3.2,1.1c-0.2,0.1-0.3,0.1-0.5,0c-0.2,0-0.3-0.1-0.4-0.2
			C45.8,128.6,45.8,128.5,45.8,128.3z"/>
		<path class="st0" d="M66,121.4L65.9,98c0-0.2,0-0.3,0.1-0.5c0.1-0.2,0.2-0.3,0.3-0.5c0.1-0.1,0.3-0.2,0.4-0.3l2.4-0.8
			c0.2-0.1,0.5-0.1,0.6,0.1c0.2,0.1,0.3,0.3,0.3,0.6l0,8.9l6.1-2.1l0-8.9c0-0.2,0-0.3,0.1-0.5c0.1-0.2,0.2-0.3,0.3-0.5
			c0.1-0.1,0.3-0.2,0.4-0.3l2.3-0.8c0.2-0.1,0.3-0.1,0.4,0c0.1,0,0.3,0.1,0.3,0.2c0.1,0.1,0.1,0.3,0.1,0.4l0.1,23.4
			c0,0.2,0,0.4-0.1,0.5c-0.1,0.2-0.2,0.3-0.3,0.5c-0.1,0.1-0.3,0.2-0.5,0.3l-2.3,0.8c-0.2,0.1-0.3,0.1-0.5,0c-0.1,0-0.3-0.1-0.3-0.2
			c-0.1-0.1-0.1-0.3-0.1-0.5l0-10l-6.1,2.1l0,10c0,0.2,0,0.4-0.1,0.5c-0.1,0.2-0.2,0.3-0.3,0.5c-0.1,0.1-0.3,0.2-0.4,0.3l-2.4,0.8
			c-0.1,0-0.3,0-0.4,0c-0.1,0-0.2-0.1-0.3-0.3C66.1,121.7,66,121.6,66,121.4z"/>
		<path class="st0" d="M82.9,106.9c0,0,0-0.1,0-0.1l2.6-15.6c0-0.2,0.1-0.3,0.3-0.5c0.1-0.2,0.3-0.3,0.5-0.3l2.6-0.9
			c0.2-0.1,0.3-0.1,0.5,0c0.1,0.1,0.2,0.2,0.3,0.3l2.7,13.8c0,0,0,0.1,0,0.1c0,0.1,0,0.3-0.1,0.4c-0.1,0.1-0.2,0.2-0.4,0.3l-1.7,0.6
			c-0.3,0.1-0.5,0-0.5-0.3l-0.6-3.5l-2.6,0.9l-0.6,3.9c0,0.2-0.1,0.3-0.2,0.4c-0.1,0.1-0.2,0.2-0.4,0.2l-1.7,0.6
			c-0.2,0.1-0.3,0.1-0.4,0C83,107.2,82.9,107.1,82.9,106.9z M88.6,98.7l-0.9-5.4c0,0,0-0.1,0-0.1c0,0,0,0-0.1,0c0,0,0,0-0.1,0
			c0,0,0,0.1,0,0.1l-0.8,6L88.6,98.7z"/>
		<path class="st0" d="M94.6,103c0,0,0-0.1,0-0.1l2.6-15.6c0-0.2,0.1-0.3,0.3-0.5c0.1-0.2,0.3-0.3,0.5-0.3l2.6-0.9
			c0.2-0.1,0.3-0.1,0.5,0c0.1,0.1,0.2,0.2,0.3,0.3l2.7,13.8c0,0,0,0.1,0,0.1c0,0.1,0,0.3-0.1,0.4c-0.1,0.1-0.2,0.2-0.4,0.3l-1.7,0.6
			c-0.3,0.1-0.5,0-0.5-0.3l-0.6-3.5L98,98.1l-0.6,3.9c0,0.2-0.1,0.3-0.2,0.4c-0.1,0.1-0.2,0.2-0.4,0.2l-1.7,0.6
			c-0.2,0.1-0.3,0.1-0.4,0C94.7,103.2,94.6,103.1,94.6,103z M100.3,94.7l-0.9-5.4c0,0,0-0.1,0-0.1c0,0,0,0-0.1,0c0,0,0,0-0.1,0
			c0,0,0,0.1,0,0.1l-0.8,6L100.3,94.7z"/>
		<path class="st0" d="M106.2,99.1c0,0,0-0.1,0-0.1l2.6-15.6c0-0.2,0.1-0.3,0.3-0.5c0.1-0.2,0.3-0.3,0.5-0.3l2.6-0.9
			c0.2-0.1,0.3-0.1,0.5,0c0.1,0.1,0.2,0.2,0.3,0.3l2.7,13.8c0,0,0,0.1,0,0.1c0,0.1,0,0.3-0.1,0.4c-0.1,0.1-0.2,0.2-0.4,0.3l-1.7,0.6
			c-0.3,0.1-0.5,0-0.5-0.3l-0.6-3.5l-2.6,0.9l-0.6,3.9c0,0.2-0.1,0.3-0.2,0.4c-0.1,0.1-0.2,0.2-0.4,0.2l-1.7,0.6
			c-0.2,0.1-0.3,0.1-0.4,0C106.3,99.3,106.2,99.2,106.2,99.1z M111.9,90.8l-0.9-5.4c0,0,0-0.1,0-0.1c0,0,0,0-0.1,0c0,0,0,0-0.1,0
			c0,0,0,0.1,0,0.1l-0.8,6L111.9,90.8z"/>
		<path class="st0" d="M120.2,103.1l-0.1-20.2l-2.6,0.9c-0.3,0.1-0.5,0.1-0.7,0c-0.2-0.1-0.3-0.3-0.3-0.5l0-2.4
			c0-0.3,0.1-0.5,0.3-0.7c0.2-0.2,0.4-0.4,0.7-0.5l9.5-3.2c0.2-0.1,0.3-0.1,0.5,0c0.1,0,0.3,0.1,0.3,0.2c0.1,0.1,0.1,0.2,0.1,0.4
			l0,2.4c0,0.2,0,0.3-0.1,0.5c-0.1,0.2-0.2,0.3-0.3,0.4c-0.1,0.1-0.3,0.2-0.5,0.3l-2.8,0.9l0.1,20.2c0,0.3-0.1,0.5-0.2,0.8
			c-0.2,0.2-0.4,0.4-0.6,0.5l-2.4,0.8c-0.1,0-0.3,0-0.4,0c-0.1,0-0.2-0.1-0.3-0.3C120.2,103.4,120.2,103.2,120.2,103.1z"/>
	</g>
	<g>
		<path class="st0" d="M133,91.8c0-0.1,0-0.2,0-0.3c0-0.1,0-0.2,0-0.3c0-0.4,0-0.7,0-0.9c0-0.8,0.1-1.6,0.3-2.2
			c0.2-0.7,0.6-1.3,1.2-2c0.6-0.7,1.4-1.4,2.4-2.2c0.5-0.5,0.8-0.9,1-1.4c0.2-0.4,0.3-0.9,0.3-1.3l0-2.4c0-0.4-0.1-0.8-0.3-1.1
			c-0.2-0.3-0.4-0.5-0.7-0.6c-0.3-0.1-0.7-0.1-1.1,0c-0.1,0-0.1,0-0.2,0l-0.2,0.1c-0.2,0.1-0.5,0.2-0.6,0.3
			c-0.3,0.2-0.6,0.5-0.8,0.8c-0.2,0.3-0.4,0.7-0.5,1c-0.1,0.4-0.2,0.7-0.2,1.1l0,0.3c0,0.3-0.1,0.5-0.3,0.8
			c-0.2,0.3-0.4,0.4-0.6,0.5l-2.2,0.7c-0.2,0.1-0.3,0.1-0.5,0c-0.1,0-0.3-0.1-0.3-0.3c-0.1-0.1-0.1-0.3-0.1-0.5l0,0
			c0-0.9,0.1-1.8,0.4-2.7c0.3-0.9,0.7-1.8,1.2-2.6c0.5-0.8,1.1-1.5,1.8-2.1c0.7-0.6,1.4-1,2.2-1.2l1-0.3c0.9-0.3,1.7-0.4,2.4-0.4
			c0.7,0.1,1.3,0.3,1.9,0.7c0.9,0.6,1.4,1.6,1.4,3.1c0.1,0.7,0.1,1.6,0.1,2.6c0,1.6-0.2,2.9-0.5,4c-0.3,1.1-0.7,1.9-1.3,2.4
			c-0.5,0.5-1.1,1-1.7,1.4c-0.3,0.2-0.5,0.3-0.6,0.4c-0.1,0.1-0.3,0.2-0.3,0.4c-0.1,0.1-0.2,0.3-0.2,0.6c0,0.3-0.1,0.8-0.1,1.5
			c0,0.4,0,0.8,0,1.1c0,0.3-0.1,0.6-0.2,0.9c-0.1,0.3-0.3,0.4-0.5,0.5l-2.3,0.8c-0.2,0.1-0.4,0.1-0.6,0c-0.2-0.1-0.3-0.2-0.4-0.3
			C133.1,92.2,133,92,133,91.8z"/>
	</g>
	<path class="st0" d="M133.1,98.4l0-2.7c0-0.2,0-0.5,0.2-0.7c0.1-0.2,0.2-0.4,0.4-0.6c0.2-0.2,0.4-0.3,0.6-0.4l2.4-0.8
		c0.2-0.1,0.4-0.1,0.6,0c0.2,0.1,0.3,0.2,0.4,0.3c0.1,0.2,0.2,0.4,0.2,0.6l0,2.7c0,0.2-0.1,0.5-0.2,0.7c-0.1,0.2-0.2,0.4-0.4,0.6
		s-0.4,0.3-0.6,0.4l-2.4,0.8c-0.2,0.1-0.4,0.1-0.6,0c-0.2-0.1-0.3-0.2-0.4-0.3C133.2,98.8,133.1,98.6,133.1,98.4z"/>
</g>
</svg>
