<svg xmlns="http://www.w3.org/2000/svg" viewBox="0 0 490.67 320.61"><title>ui-design-icon</title><polyline points="264.1 241.09 68.6 241.09 68.6 99.1 289.6 99.1 289.6 242.62" style="fill:#fff;stroke:#493347;stroke-linejoin:round;stroke-width:2px"/><line x1="274.95" y1="241.09" x2="268.1" y2="241.09" style="fill:none;stroke:#3abdb0;stroke-miterlimit:10;stroke-width:2px"/><line x1="285.7" y1="241.09" x2="278.85" y2="241.09" style="fill:none;stroke:#3abdb0;stroke-miterlimit:10;stroke-width:2px"/><rect x="76.39" y="106.53" width="205.42" height="113.83" style="fill:#fff;stroke:#493347;stroke-linejoin:round;stroke-width:2px"/><path d="M166.81,242.09s5.67,15.11-5,23.11h37c-10.67-8-5-23.11-5-23.11" style="fill:#fff;stroke:#493347;stroke-linejoin:round;stroke-width:2px"/><line x1="151.35" y1="265.2" x2="220.68" y2="265.2" style="fill:#fff;stroke:#493347;stroke-linejoin:round;stroke-width:2px"/><line x1="140.28" y1="265.2" x2="133.43" y2="265.2" style="fill:none;stroke:#3abdb0;stroke-miterlimit:10;stroke-width:2px"/><line x1="149.03" y1="265.2" x2="142.18" y2="265.2" style="fill:none;stroke:#3abdb0;stroke-miterlimit:10;stroke-width:2px"/><circle cx="180.39" cy="230.13" r="4.35" style="fill:#3abdb0"/><circle cx="251.17" cy="202.87" r="3.47" style="fill:none;stroke:#3abdb0;stroke-miterlimit:10;stroke-width:2px"/><circle cx="268.05" cy="202.87" r="3.47" style="fill:none;stroke:#3abdb0;stroke-miterlimit:10;stroke-width:2px"/><rect x="81.71" y="114.36" width="194.85" height="96.5" style="fill:none;stroke:#3abdb0;stroke-miterlimit:10;stroke-width:2px"/><circle cx="85.36" cy="118.24" r="1.18" style="fill:#3abdb0"/><circle cx="91.76" cy="118.24" r="1.18" style="fill:#3abdb0"/><circle cx="88.56" cy="118.24" r="1.18" style="fill:#3abdb0"/><line x1="81.71" y1="129.21" x2="275.75" y2="129.21" style="fill:none;stroke:#3abdb0;stroke-miterlimit:10;stroke-width:2px"/><line x1="116.35" y1="145.87" x2="116.35" y2="210.87" style="fill:none;stroke:#3abdb0;stroke-miterlimit:10;stroke-width:1.79457805262956px"/><line x1="241.85" y1="130.13" x2="241.85" y2="210.87" style="fill:none;stroke:#3abdb0;stroke-miterlimit:10;stroke-width:2px"/><rect x="85.19" y="121.73" width="4.8" height="4.8" style="fill:#3abdb0"/><rect x="106.35" y="121.74" width="4.8" height="4.8" style="fill:#3abdb0"/><rect x="114.89" y="121.74" width="4.8" height="4.8" style="fill:#3abdb0"/><rect x="123.43" y="121.74" width="4.8" height="4.8" style="fill:#3abdb0"/><rect x="131.97" y="121.74" width="4.8" height="4.8" style="fill:#3abdb0"/><rect x="157.3" y="121.68" width="4.8" height="4.8" style="fill:#3abdb0"/><rect x="225.67" y="121.68" width="4.8" height="4.8" style="fill:#3abdb0"/><rect x="234.99" y="121.68" width="4.8" height="4.8" style="fill:#3abdb0"/><rect x="244.3" y="121.68" width="4.8" height="4.8" style="fill:#3abdb0"/><rect x="253.62" y="121.68" width="4.8" height="4.8" style="fill:#3abdb0"/><rect x="136.97" y="142.55" width="27.73" height="49.67" style="fill:#fff;stroke:#493347;stroke-linejoin:round;stroke-width:2px"/><rect x="194.63" y="142.55" width="27.73" height="49.67" style="fill:#fff;stroke:#493347;stroke-linejoin:round;stroke-width:2px"/><line x1="85.69" y1="137.37" x2="111.66" y2="137.37" style="fill:none;stroke:#3abdb0;stroke-miterlimit:10;stroke-width:1.79457805262956px"/><line x1="85.69" y1="143.68" x2="111.66" y2="143.68" style="fill:none;stroke:#3abdb0;stroke-miterlimit:10;stroke-width:1.79457805262956px"/><line x1="85.69" y1="149.99" x2="111.66" y2="149.99" style="fill:none;stroke:#3abdb0;stroke-miterlimit:10;stroke-width:1.79457805262956px"/><line x1="85.69" y1="156.3" x2="111.66" y2="156.3" style="fill:none;stroke:#3abdb0;stroke-miterlimit:10;stroke-width:1.79457805262956px"/><line x1="85.69" y1="162.61" x2="111.66" y2="162.61" style="fill:none;stroke:#3abdb0;stroke-miterlimit:10;stroke-width:1.79457805262956px"/><rect x="247.69" y="136.28" width="22.83" height="6.16" style="fill:#fff;stroke:#493347;stroke-miterlimit:10;stroke-width:2px"/><line x1="116.35" y1="131.15" x2="116.35" y2="136.2" style="fill:#fff;stroke:#493347;stroke-linejoin:round;stroke-width:2px"/><line x1="116.3" y1="138.53" x2="116.3" y2="143.18" style="fill:#fff;stroke:#493347;stroke-linejoin:round;stroke-width:2px"/><rect x="304.64" y="196.47" width="38.38" height="68.73" rx="5.82" ry="5.82" style="fill:#fff;stroke:#493347;stroke-linejoin:round;stroke-width:2px"/><circle cx="336.92" cy="200.77" r="1.74" style="fill:#493347"/><polyline points="339.83 235.82 339.83 205.45 307.81 205.45 307.81 256.22 340.84 256.22" style="fill:#fff;stroke:#493347;stroke-linejoin:round;stroke-width:2px"/><line x1="339.83" y1="244.46" x2="339.83" y2="237.62" style="fill:none;stroke:#3abdb0;stroke-miterlimit:10;stroke-width:2px"/><line x1="339.83" y1="253.21" x2="339.83" y2="246.37" style="fill:none;stroke:#3abdb0;stroke-miterlimit:10;stroke-width:2px"/><line x1="319.07" y1="260.24" x2="328.58" y2="260.24" style="fill:#fff;stroke:#493347;stroke-linecap:round;stroke-linejoin:round;stroke-width:2px"/><rect x="360.21" y="165.5" width="71.87" height="99.7" rx="9.6" ry="9.6" style="fill:#fff;stroke:#493347;stroke-linejoin:round;stroke-width:2px"/><circle cx="396.32" cy="172.28" r="1.74" style="fill:#493347"/><circle cx="396.05" cy="258.59" r="3.47" style="fill:#493347"/><polyline points="365.8 178.53 426.82 178.53 426.82 252.17 366.85 252.17 366.85 201.31" style="fill:#fff;stroke:#493347;stroke-linejoin:round;stroke-width:2px"/><line x1="366.85" y1="188.34" x2="366.85" y2="181.49" style="fill:none;stroke:#3abdb0;stroke-miterlimit:10;stroke-width:2px"/><line x1="366.85" y1="198.23" x2="366.85" y2="191.38" style="fill:none;stroke:#3abdb0;stroke-miterlimit:10;stroke-width:2px"/></svg>